%TF.GenerationSoftware,KiCad,Pcbnew,8.0.5*%
%TF.CreationDate,2024-09-26T13:26:48+03:30*%
%TF.ProjectId,rolup,726f6c75-702e-46b6-9963-61645f706362,rev?*%
%TF.SameCoordinates,Original*%
%TF.FileFunction,Legend,Top*%
%TF.FilePolarity,Positive*%
%FSLAX46Y46*%
G04 Gerber Fmt 4.6, Leading zero omitted, Abs format (unit mm)*
G04 Created by KiCad (PCBNEW 8.0.5) date 2024-09-26 13:26:48*
%MOMM*%
%LPD*%
G01*
G04 APERTURE LIST*
%ADD10C,0.150000*%
%ADD11C,0.120000*%
G04 APERTURE END LIST*
D10*
X47716666Y-87994819D02*
X47716666Y-88709104D01*
X47716666Y-88709104D02*
X47669047Y-88851961D01*
X47669047Y-88851961D02*
X47573809Y-88947200D01*
X47573809Y-88947200D02*
X47430952Y-88994819D01*
X47430952Y-88994819D02*
X47335714Y-88994819D01*
X48621428Y-87994819D02*
X48430952Y-87994819D01*
X48430952Y-87994819D02*
X48335714Y-88042438D01*
X48335714Y-88042438D02*
X48288095Y-88090057D01*
X48288095Y-88090057D02*
X48192857Y-88232914D01*
X48192857Y-88232914D02*
X48145238Y-88423390D01*
X48145238Y-88423390D02*
X48145238Y-88804342D01*
X48145238Y-88804342D02*
X48192857Y-88899580D01*
X48192857Y-88899580D02*
X48240476Y-88947200D01*
X48240476Y-88947200D02*
X48335714Y-88994819D01*
X48335714Y-88994819D02*
X48526190Y-88994819D01*
X48526190Y-88994819D02*
X48621428Y-88947200D01*
X48621428Y-88947200D02*
X48669047Y-88899580D01*
X48669047Y-88899580D02*
X48716666Y-88804342D01*
X48716666Y-88804342D02*
X48716666Y-88566247D01*
X48716666Y-88566247D02*
X48669047Y-88471009D01*
X48669047Y-88471009D02*
X48621428Y-88423390D01*
X48621428Y-88423390D02*
X48526190Y-88375771D01*
X48526190Y-88375771D02*
X48335714Y-88375771D01*
X48335714Y-88375771D02*
X48240476Y-88423390D01*
X48240476Y-88423390D02*
X48192857Y-88471009D01*
X48192857Y-88471009D02*
X48145238Y-88566247D01*
X38139819Y-70608333D02*
X38854104Y-70608333D01*
X38854104Y-70608333D02*
X38996961Y-70655952D01*
X38996961Y-70655952D02*
X39092200Y-70751190D01*
X39092200Y-70751190D02*
X39139819Y-70894047D01*
X39139819Y-70894047D02*
X39139819Y-70989285D01*
X38473152Y-69703571D02*
X39139819Y-69703571D01*
X38092200Y-69941666D02*
X38806485Y-70179761D01*
X38806485Y-70179761D02*
X38806485Y-69560714D01*
X49284819Y-82066666D02*
X48808628Y-82399999D01*
X49284819Y-82638094D02*
X48284819Y-82638094D01*
X48284819Y-82638094D02*
X48284819Y-82257142D01*
X48284819Y-82257142D02*
X48332438Y-82161904D01*
X48332438Y-82161904D02*
X48380057Y-82114285D01*
X48380057Y-82114285D02*
X48475295Y-82066666D01*
X48475295Y-82066666D02*
X48618152Y-82066666D01*
X48618152Y-82066666D02*
X48713390Y-82114285D01*
X48713390Y-82114285D02*
X48761009Y-82161904D01*
X48761009Y-82161904D02*
X48808628Y-82257142D01*
X48808628Y-82257142D02*
X48808628Y-82638094D01*
X48618152Y-81209523D02*
X49284819Y-81209523D01*
X48237200Y-81447618D02*
X48951485Y-81685713D01*
X48951485Y-81685713D02*
X48951485Y-81066666D01*
X41724819Y-71741666D02*
X41248628Y-72074999D01*
X41724819Y-72313094D02*
X40724819Y-72313094D01*
X40724819Y-72313094D02*
X40724819Y-71932142D01*
X40724819Y-71932142D02*
X40772438Y-71836904D01*
X40772438Y-71836904D02*
X40820057Y-71789285D01*
X40820057Y-71789285D02*
X40915295Y-71741666D01*
X40915295Y-71741666D02*
X41058152Y-71741666D01*
X41058152Y-71741666D02*
X41153390Y-71789285D01*
X41153390Y-71789285D02*
X41201009Y-71836904D01*
X41201009Y-71836904D02*
X41248628Y-71932142D01*
X41248628Y-71932142D02*
X41248628Y-72313094D01*
X41724819Y-70789285D02*
X41724819Y-71360713D01*
X41724819Y-71074999D02*
X40724819Y-71074999D01*
X40724819Y-71074999D02*
X40867676Y-71170237D01*
X40867676Y-71170237D02*
X40962914Y-71265475D01*
X40962914Y-71265475D02*
X41010533Y-71360713D01*
X37814819Y-101433333D02*
X38529104Y-101433333D01*
X38529104Y-101433333D02*
X38671961Y-101480952D01*
X38671961Y-101480952D02*
X38767200Y-101576190D01*
X38767200Y-101576190D02*
X38814819Y-101719047D01*
X38814819Y-101719047D02*
X38814819Y-101814285D01*
X38814819Y-100433333D02*
X38814819Y-101004761D01*
X38814819Y-100719047D02*
X37814819Y-100719047D01*
X37814819Y-100719047D02*
X37957676Y-100814285D01*
X37957676Y-100814285D02*
X38052914Y-100909523D01*
X38052914Y-100909523D02*
X38100533Y-101004761D01*
X49226666Y-114729819D02*
X49226666Y-115444104D01*
X49226666Y-115444104D02*
X49179047Y-115586961D01*
X49179047Y-115586961D02*
X49083809Y-115682200D01*
X49083809Y-115682200D02*
X48940952Y-115729819D01*
X48940952Y-115729819D02*
X48845714Y-115729819D01*
X49607619Y-114729819D02*
X50226666Y-114729819D01*
X50226666Y-114729819D02*
X49893333Y-115110771D01*
X49893333Y-115110771D02*
X50036190Y-115110771D01*
X50036190Y-115110771D02*
X50131428Y-115158390D01*
X50131428Y-115158390D02*
X50179047Y-115206009D01*
X50179047Y-115206009D02*
X50226666Y-115301247D01*
X50226666Y-115301247D02*
X50226666Y-115539342D01*
X50226666Y-115539342D02*
X50179047Y-115634580D01*
X50179047Y-115634580D02*
X50131428Y-115682200D01*
X50131428Y-115682200D02*
X50036190Y-115729819D01*
X50036190Y-115729819D02*
X49750476Y-115729819D01*
X49750476Y-115729819D02*
X49655238Y-115682200D01*
X49655238Y-115682200D02*
X49607619Y-115634580D01*
X45616666Y-76189819D02*
X45616666Y-76904104D01*
X45616666Y-76904104D02*
X45569047Y-77046961D01*
X45569047Y-77046961D02*
X45473809Y-77142200D01*
X45473809Y-77142200D02*
X45330952Y-77189819D01*
X45330952Y-77189819D02*
X45235714Y-77189819D01*
X45997619Y-76189819D02*
X46664285Y-76189819D01*
X46664285Y-76189819D02*
X46235714Y-77189819D01*
X38634819Y-85066666D02*
X38158628Y-85399999D01*
X38634819Y-85638094D02*
X37634819Y-85638094D01*
X37634819Y-85638094D02*
X37634819Y-85257142D01*
X37634819Y-85257142D02*
X37682438Y-85161904D01*
X37682438Y-85161904D02*
X37730057Y-85114285D01*
X37730057Y-85114285D02*
X37825295Y-85066666D01*
X37825295Y-85066666D02*
X37968152Y-85066666D01*
X37968152Y-85066666D02*
X38063390Y-85114285D01*
X38063390Y-85114285D02*
X38111009Y-85161904D01*
X38111009Y-85161904D02*
X38158628Y-85257142D01*
X38158628Y-85257142D02*
X38158628Y-85638094D01*
X37634819Y-84733332D02*
X37634819Y-84114285D01*
X37634819Y-84114285D02*
X38015771Y-84447618D01*
X38015771Y-84447618D02*
X38015771Y-84304761D01*
X38015771Y-84304761D02*
X38063390Y-84209523D01*
X38063390Y-84209523D02*
X38111009Y-84161904D01*
X38111009Y-84161904D02*
X38206247Y-84114285D01*
X38206247Y-84114285D02*
X38444342Y-84114285D01*
X38444342Y-84114285D02*
X38539580Y-84161904D01*
X38539580Y-84161904D02*
X38587200Y-84209523D01*
X38587200Y-84209523D02*
X38634819Y-84304761D01*
X38634819Y-84304761D02*
X38634819Y-84590475D01*
X38634819Y-84590475D02*
X38587200Y-84685713D01*
X38587200Y-84685713D02*
X38539580Y-84733332D01*
X32158333Y-75609819D02*
X31825000Y-75133628D01*
X31586905Y-75609819D02*
X31586905Y-74609819D01*
X31586905Y-74609819D02*
X31967857Y-74609819D01*
X31967857Y-74609819D02*
X32063095Y-74657438D01*
X32063095Y-74657438D02*
X32110714Y-74705057D01*
X32110714Y-74705057D02*
X32158333Y-74800295D01*
X32158333Y-74800295D02*
X32158333Y-74943152D01*
X32158333Y-74943152D02*
X32110714Y-75038390D01*
X32110714Y-75038390D02*
X32063095Y-75086009D01*
X32063095Y-75086009D02*
X31967857Y-75133628D01*
X31967857Y-75133628D02*
X31586905Y-75133628D01*
X32539286Y-74705057D02*
X32586905Y-74657438D01*
X32586905Y-74657438D02*
X32682143Y-74609819D01*
X32682143Y-74609819D02*
X32920238Y-74609819D01*
X32920238Y-74609819D02*
X33015476Y-74657438D01*
X33015476Y-74657438D02*
X33063095Y-74705057D01*
X33063095Y-74705057D02*
X33110714Y-74800295D01*
X33110714Y-74800295D02*
X33110714Y-74895533D01*
X33110714Y-74895533D02*
X33063095Y-75038390D01*
X33063095Y-75038390D02*
X32491667Y-75609819D01*
X32491667Y-75609819D02*
X33110714Y-75609819D01*
X38164819Y-108983333D02*
X38879104Y-108983333D01*
X38879104Y-108983333D02*
X39021961Y-109030952D01*
X39021961Y-109030952D02*
X39117200Y-109126190D01*
X39117200Y-109126190D02*
X39164819Y-109269047D01*
X39164819Y-109269047D02*
X39164819Y-109364285D01*
X38260057Y-108554761D02*
X38212438Y-108507142D01*
X38212438Y-108507142D02*
X38164819Y-108411904D01*
X38164819Y-108411904D02*
X38164819Y-108173809D01*
X38164819Y-108173809D02*
X38212438Y-108078571D01*
X38212438Y-108078571D02*
X38260057Y-108030952D01*
X38260057Y-108030952D02*
X38355295Y-107983333D01*
X38355295Y-107983333D02*
X38450533Y-107983333D01*
X38450533Y-107983333D02*
X38593390Y-108030952D01*
X38593390Y-108030952D02*
X39164819Y-108602380D01*
X39164819Y-108602380D02*
X39164819Y-107983333D01*
X27094819Y-94153333D02*
X27809104Y-94153333D01*
X27809104Y-94153333D02*
X27951961Y-94200952D01*
X27951961Y-94200952D02*
X28047200Y-94296190D01*
X28047200Y-94296190D02*
X28094819Y-94439047D01*
X28094819Y-94439047D02*
X28094819Y-94534285D01*
X27094819Y-93200952D02*
X27094819Y-93677142D01*
X27094819Y-93677142D02*
X27571009Y-93724761D01*
X27571009Y-93724761D02*
X27523390Y-93677142D01*
X27523390Y-93677142D02*
X27475771Y-93581904D01*
X27475771Y-93581904D02*
X27475771Y-93343809D01*
X27475771Y-93343809D02*
X27523390Y-93248571D01*
X27523390Y-93248571D02*
X27571009Y-93200952D01*
X27571009Y-93200952D02*
X27666247Y-93153333D01*
X27666247Y-93153333D02*
X27904342Y-93153333D01*
X27904342Y-93153333D02*
X27999580Y-93200952D01*
X27999580Y-93200952D02*
X28047200Y-93248571D01*
X28047200Y-93248571D02*
X28094819Y-93343809D01*
X28094819Y-93343809D02*
X28094819Y-93581904D01*
X28094819Y-93581904D02*
X28047200Y-93677142D01*
X28047200Y-93677142D02*
X27999580Y-93724761D01*
D11*
%TO.C,J6*%
X47355000Y-89415000D02*
X48050000Y-89415000D01*
X47355000Y-90100000D02*
X47355000Y-89415000D01*
X47355000Y-90785000D02*
X47355000Y-99660000D01*
X47355000Y-90785000D02*
X47441724Y-90785000D01*
X47355000Y-99660000D02*
X47655507Y-99660000D01*
X48444493Y-99660000D02*
X48745000Y-99660000D01*
X48658276Y-90785000D02*
X48745000Y-90785000D01*
X48745000Y-90785000D02*
X48745000Y-99660000D01*
%TO.C,J4*%
X26825000Y-64975000D02*
X26825000Y-66975000D01*
X27065000Y-65215000D02*
X27065000Y-75335000D01*
X29065000Y-64975000D02*
X26825000Y-64975000D01*
X29125000Y-65215000D02*
X29125000Y-75335000D01*
X29800000Y-71667000D02*
X29775000Y-71643000D01*
X30042000Y-71475000D02*
X29992000Y-71425000D01*
X32258000Y-74125000D02*
X32208000Y-74076000D01*
X32475000Y-73908000D02*
X32451000Y-73883000D01*
X33125000Y-65215000D02*
X33125000Y-75335000D01*
X34125000Y-65215000D02*
X34125000Y-75335000D01*
X37685000Y-65215000D02*
X27065000Y-65215000D01*
X37685000Y-65215000D02*
X37685000Y-75335000D01*
X37685000Y-75335000D02*
X27065000Y-75335000D01*
X29344610Y-67805814D02*
G75*
G02*
X29486000Y-67079000I1780376J30816D01*
G01*
X29486501Y-68470501D02*
G75*
G02*
X29345000Y-67775000I1638501J695501D01*
G01*
X30429484Y-66135794D02*
G75*
G02*
X31821000Y-66136000I695515J-1639201D01*
G01*
X31820516Y-69414206D02*
G75*
G02*
X30429000Y-69414000I-695516J1639206D01*
G01*
X32764206Y-67079484D02*
G75*
G02*
X32764000Y-68471000I-1639201J-695515D01*
G01*
X32905000Y-72775000D02*
G75*
G02*
X29345000Y-72775000I-1780000J0D01*
G01*
X29345000Y-72775000D02*
G75*
G02*
X32905000Y-72775000I1780000J0D01*
G01*
%TO.C,R4*%
X49830000Y-79980000D02*
X49830000Y-83820000D01*
X49830000Y-83820000D02*
X51670000Y-83820000D01*
X50750000Y-79030000D02*
X50750000Y-79980000D01*
X50750000Y-84770000D02*
X50750000Y-83820000D01*
X51670000Y-79980000D02*
X49830000Y-79980000D01*
X51670000Y-83820000D02*
X51670000Y-79980000D01*
%TO.C,R1*%
X38430000Y-69655000D02*
X38430000Y-73495000D01*
X38430000Y-73495000D02*
X40270000Y-73495000D01*
X39350000Y-68705000D02*
X39350000Y-69655000D01*
X39350000Y-74445000D02*
X39350000Y-73495000D01*
X40270000Y-69655000D02*
X38430000Y-69655000D01*
X40270000Y-73495000D02*
X40270000Y-69655000D01*
%TO.C,J1*%
X26850000Y-89750000D02*
X26850000Y-91750000D01*
X27090000Y-89990000D02*
X27090000Y-100110000D01*
X29090000Y-89750000D02*
X26850000Y-89750000D01*
X29150000Y-89990000D02*
X29150000Y-100110000D01*
X29825000Y-96442000D02*
X29800000Y-96418000D01*
X30067000Y-96250000D02*
X30017000Y-96200000D01*
X32283000Y-98900000D02*
X32233000Y-98851000D01*
X32500000Y-98683000D02*
X32476000Y-98658000D01*
X33150000Y-89990000D02*
X33150000Y-100110000D01*
X34150000Y-89990000D02*
X34150000Y-100110000D01*
X37710000Y-89990000D02*
X27090000Y-89990000D01*
X37710000Y-89990000D02*
X37710000Y-100110000D01*
X37710000Y-100110000D02*
X27090000Y-100110000D01*
X29369610Y-92580814D02*
G75*
G02*
X29511000Y-91854000I1780376J30816D01*
G01*
X29511501Y-93245501D02*
G75*
G02*
X29370000Y-92550000I1638501J695501D01*
G01*
X30454484Y-90910794D02*
G75*
G02*
X31846000Y-90911000I695515J-1639201D01*
G01*
X31845516Y-94189206D02*
G75*
G02*
X30454000Y-94189000I-695516J1639206D01*
G01*
X32789206Y-91854484D02*
G75*
G02*
X32789000Y-93246000I-1639201J-695515D01*
G01*
X32930000Y-97550000D02*
G75*
G02*
X29370000Y-97550000I-1780000J0D01*
G01*
X29370000Y-97550000D02*
G75*
G02*
X32930000Y-97550000I1780000J0D01*
G01*
%TO.C,J3*%
X39200000Y-114160000D02*
X39200000Y-116400000D01*
X39200000Y-116400000D02*
X41200000Y-116400000D01*
X39440000Y-105540000D02*
X39440000Y-116160000D01*
X39440000Y-105540000D02*
X49560000Y-105540000D01*
X39440000Y-109100000D02*
X49560000Y-109100000D01*
X39440000Y-110100000D02*
X49560000Y-110100000D01*
X39440000Y-114100000D02*
X49560000Y-114100000D01*
X39440000Y-116160000D02*
X49560000Y-116160000D01*
X45700000Y-113183000D02*
X45650000Y-113233000D01*
X45892000Y-113425000D02*
X45868000Y-113450000D01*
X48133000Y-110750000D02*
X48108000Y-110774000D01*
X48350000Y-110967000D02*
X48301000Y-111017000D01*
X49560000Y-105540000D02*
X49560000Y-116160000D01*
X40360794Y-112795516D02*
G75*
G02*
X40361000Y-111404000I1639201J695515D01*
G01*
X41304484Y-110460794D02*
G75*
G02*
X42696000Y-110461000I695515J-1639201D01*
G01*
X42030814Y-113880390D02*
G75*
G02*
X41304000Y-113739000I-30816J1780376D01*
G01*
X42695501Y-113738499D02*
G75*
G02*
X42000000Y-113880000I-695501J1638501D01*
G01*
X43639206Y-111404484D02*
G75*
G02*
X43639000Y-112796000I-1639206J-695516D01*
G01*
X48780000Y-112100000D02*
G75*
G02*
X45220000Y-112100000I-1780000J0D01*
G01*
X45220000Y-112100000D02*
G75*
G02*
X48780000Y-112100000I1780000J0D01*
G01*
%TO.C,J7*%
X40890000Y-75735000D02*
X40890000Y-65115000D01*
X42100000Y-70308000D02*
X42149000Y-70258000D01*
X42317000Y-70525000D02*
X42342000Y-70501000D01*
X44558000Y-67850000D02*
X44582000Y-67825000D01*
X44750000Y-68092000D02*
X44800000Y-68042000D01*
X51010000Y-65115000D02*
X40890000Y-65115000D01*
X51010000Y-67175000D02*
X40890000Y-67175000D01*
X51010000Y-71175000D02*
X40890000Y-71175000D01*
X51010000Y-72175000D02*
X40890000Y-72175000D01*
X51010000Y-75735000D02*
X40890000Y-75735000D01*
X51010000Y-75735000D02*
X51010000Y-65115000D01*
X51250000Y-64875000D02*
X49250000Y-64875000D01*
X51250000Y-67115000D02*
X51250000Y-64875000D01*
X46810794Y-69870516D02*
G75*
G02*
X46811000Y-68479000I1639206J695516D01*
G01*
X47754499Y-67536501D02*
G75*
G02*
X48450000Y-67395000I695501J-1638501D01*
G01*
X48419186Y-67394610D02*
G75*
G02*
X49146000Y-67536000I30816J-1780376D01*
G01*
X49145516Y-70814206D02*
G75*
G02*
X47754000Y-70814000I-695515J1639201D01*
G01*
X50089206Y-68479484D02*
G75*
G02*
X50089000Y-69871000I-1639201J-695515D01*
G01*
X45230000Y-69175000D02*
G75*
G02*
X41670000Y-69175000I-1780000J0D01*
G01*
X41670000Y-69175000D02*
G75*
G02*
X45230000Y-69175000I1780000J0D01*
G01*
%TO.C,R3*%
X39180000Y-82980000D02*
X39180000Y-86820000D01*
X39180000Y-86820000D02*
X41020000Y-86820000D01*
X40100000Y-82030000D02*
X40100000Y-82980000D01*
X40100000Y-87770000D02*
X40100000Y-86820000D01*
X41020000Y-82980000D02*
X39180000Y-82980000D01*
X41020000Y-86820000D02*
X41020000Y-82980000D01*
%TO.C,R2*%
X29455000Y-77075000D02*
X30405000Y-77075000D01*
X30405000Y-76155000D02*
X30405000Y-77995000D01*
X30405000Y-77995000D02*
X34245000Y-77995000D01*
X34245000Y-76155000D02*
X30405000Y-76155000D01*
X34245000Y-77995000D02*
X34245000Y-76155000D01*
X35195000Y-77075000D02*
X34245000Y-77075000D01*
%TO.C,J2*%
X26850000Y-100850000D02*
X26850000Y-102850000D01*
X27090000Y-101090000D02*
X27090000Y-116210000D01*
X29090000Y-100850000D02*
X26850000Y-100850000D01*
X29150000Y-101090000D02*
X29150000Y-116210000D01*
X29825000Y-107542000D02*
X29800000Y-107518000D01*
X29825000Y-112542000D02*
X29800000Y-112518000D01*
X30067000Y-107350000D02*
X30017000Y-107300000D01*
X30067000Y-112350000D02*
X30017000Y-112300000D01*
X32283000Y-110000000D02*
X32233000Y-109951000D01*
X32283000Y-115000000D02*
X32233000Y-114951000D01*
X32500000Y-109783000D02*
X32476000Y-109758000D01*
X32500000Y-114783000D02*
X32476000Y-114758000D01*
X33150000Y-101090000D02*
X33150000Y-116210000D01*
X34150000Y-101090000D02*
X34150000Y-116210000D01*
X37710000Y-101090000D02*
X27090000Y-101090000D01*
X37710000Y-101090000D02*
X37710000Y-116210000D01*
X37710000Y-116210000D02*
X27090000Y-116210000D01*
X29369610Y-103680814D02*
G75*
G02*
X29511000Y-102954000I1780376J30816D01*
G01*
X29511501Y-104345501D02*
G75*
G02*
X29370000Y-103650000I1638501J695501D01*
G01*
X30454484Y-102010794D02*
G75*
G02*
X31846000Y-102011000I695515J-1639201D01*
G01*
X31845516Y-105289206D02*
G75*
G02*
X30454000Y-105289000I-695516J1639206D01*
G01*
X32789206Y-102954484D02*
G75*
G02*
X32789000Y-104346000I-1639201J-695515D01*
G01*
X32930000Y-108650000D02*
G75*
G02*
X29370000Y-108650000I-1780000J0D01*
G01*
X29370000Y-108650000D02*
G75*
G02*
X32930000Y-108650000I1780000J0D01*
G01*
X32930000Y-113650000D02*
G75*
G02*
X29370000Y-113650000I-1780000J0D01*
G01*
X29370000Y-113650000D02*
G75*
G02*
X32930000Y-113650000I1780000J0D01*
G01*
%TO.C,J5*%
X26840000Y-78485000D02*
X26840000Y-80485000D01*
X27080000Y-78725000D02*
X27080000Y-88845000D01*
X29080000Y-78485000D02*
X26840000Y-78485000D01*
X29140000Y-78725000D02*
X29140000Y-88845000D01*
X29815000Y-85177000D02*
X29790000Y-85153000D01*
X30057000Y-84985000D02*
X30007000Y-84935000D01*
X32273000Y-87635000D02*
X32223000Y-87586000D01*
X32490000Y-87418000D02*
X32466000Y-87393000D01*
X33140000Y-78725000D02*
X33140000Y-88845000D01*
X34140000Y-78725000D02*
X34140000Y-88845000D01*
X37700000Y-78725000D02*
X27080000Y-78725000D01*
X37700000Y-78725000D02*
X37700000Y-88845000D01*
X37700000Y-88845000D02*
X27080000Y-88845000D01*
X29359610Y-81315814D02*
G75*
G02*
X29501000Y-80589000I1780376J30816D01*
G01*
X29501501Y-81980501D02*
G75*
G02*
X29360000Y-81285000I1638501J695501D01*
G01*
X30444484Y-79645794D02*
G75*
G02*
X31836000Y-79646000I695515J-1639201D01*
G01*
X31835516Y-82924206D02*
G75*
G02*
X30444000Y-82924000I-695516J1639206D01*
G01*
X32779206Y-80589484D02*
G75*
G02*
X32779000Y-81981000I-1639201J-695515D01*
G01*
X32920000Y-86285000D02*
G75*
G02*
X29360000Y-86285000I-1780000J0D01*
G01*
X29360000Y-86285000D02*
G75*
G02*
X32920000Y-86285000I1780000J0D01*
G01*
%TD*%
M02*
